<?xml version="1.0" standalone="no"?>
<!DOCTYPE svg PUBLIC "-//W3C//DTD SVG 20010904//EN"
 "http://www.w3.org/TR/2001/REC-SVG-20010904/DTD/svg10.dtd">
<svg version="1.0" xmlns="http://www.w3.org/2000/svg"
 width="256.000000pt" height="256.000000pt" viewBox="0 0 256.000000 256.000000"
 preserveAspectRatio="xMidYMid meet">
<metadata>
Created by potrace 1.11, written by Peter Selinger 2001-2013
</metadata>
<g transform="translate(0.000000,256.000000) scale(0.100000,-0.100000)"
fill="#000000" stroke="none">
<path d="M1210 2554 c-147 -21 -273 -56 -360 -101 -181 -94 -334 -251 -426
-438 -63 -130 -85 -224 -90 -380 -3 -113 -1 -143 21 -229 60 -243 192 -491
438 -826 141 -191 468 -570 492 -570 21 0 310 332 453 519 256 335 414 624
478 876 30 119 28 317 -5 440 -71 260 -261 494 -497 609 -66 32 -178 73 -222
81 -77 14 -240 25 -282 19z m225 -337 c211 -50 378 -205 458 -427 28 -79 32
-261 8 -352 -59 -219 -237 -398 -451 -453 -211 -55 -430 -2 -589 142 -278 251
-281 680 -7 936 96 90 217 149 336 164 25 3 46 6 47 7 8 7 148 -5 198 -17z"/>
</g>
</svg>
